<svg width="55" height="55" viewBox="0 0 55 55" fill="none" xmlns="http://www.w3.org/2000/svg">
<rect x="0.0605469" y="0.241699" width="54" height="54" rx="27" fill="#DDE4FF"/>
<path d="M25.828 32.7383C25.4739 32.7383 25.1197 32.5541 24.9214 32.2283C24.6239 31.7324 24.7797 31.0666 25.2897 30.7691L26.5505 30.0183V28.4883C26.5505 27.9074 27.0322 27.4258 27.613 27.4258C28.1939 27.4258 28.6755 27.9074 28.6755 28.4883V30.6133C28.6755 30.9816 28.4772 31.3358 28.1655 31.5199L26.3947 32.5824C26.1964 32.6816 26.0122 32.7383 25.828 32.7383Z" fill="#346ED6"/>
<path d="M39.938 20.1299C38.7339 18.7982 36.7364 18.1324 33.8039 18.1324H33.4639V18.0757C33.4639 15.6957 33.4639 12.749 28.1372 12.749H25.9839C20.6572 12.749 20.6572 15.6957 20.6572 18.0757V18.1324H20.3172C17.3847 18.1324 15.373 18.7982 14.183 20.1299C12.7805 21.7024 12.823 23.7849 12.9647 25.2157L12.9789 25.3149L13.0854 26.5583C13.0986 26.7123 13.1822 26.8515 13.3119 26.9355C13.7383 27.2119 14.1978 27.5079 14.6364 27.7515C14.8347 27.879 15.0472 27.9924 15.2597 28.1057C16.8605 28.984 18.5747 29.6782 20.3314 30.1599C20.3739 33.829 23.3772 36.804 27.0605 36.804C30.7722 36.804 33.7897 33.7865 33.7897 30.0749V30.0182C35.5747 29.4799 37.2889 28.729 38.8897 27.794C38.9747 27.7515 39.0314 27.709 39.1022 27.6665C39.6884 27.3479 40.2975 26.9262 40.8471 26.5353C40.9629 26.4529 41.0378 26.325 41.0535 26.1838L41.0855 25.8957L41.1564 25.2299C41.1705 25.1449 41.1705 25.074 41.1847 24.9749C41.298 23.5582 41.2697 21.6032 39.938 20.1299ZM22.683 18.0757C22.683 15.6674 22.683 14.7607 25.9839 14.7607H28.1372C31.438 14.7607 31.438 15.6674 31.438 18.0757V18.1324H22.683V18.0757ZM27.0605 34.679C24.723 34.679 22.7822 32.9224 22.4989 30.6557C22.4705 30.4715 22.4564 30.2732 22.4564 30.0749C22.4564 27.539 24.5247 25.4707 27.0605 25.4707C29.5964 25.4707 31.6647 27.539 31.6647 30.0749C31.6647 30.2449 31.6505 30.4007 31.6364 30.5565V30.5707C31.3813 32.8799 29.4264 34.679 27.0605 34.679Z" fill="#346ED6"/>
<path d="M39.8672 29.6926C40.2195 29.4969 40.6766 29.7805 40.6399 30.1819L40.1363 35.6851C39.8388 38.5185 38.6771 41.4084 32.4438 41.4084H21.6488C15.4155 41.4084 14.2538 38.5185 13.9705 35.6993L13.4799 30.4469C13.4421 30.0421 13.8803 29.7716 14.2396 29.9618C15.3446 30.571 16.4921 31.1093 17.668 31.5343C18.1071 31.6901 18.4188 32.0585 18.5463 32.5118C19.6088 36.1951 23.0371 38.9293 27.0605 38.9293C31.1546 38.9293 34.6113 36.1385 35.6171 32.3135C35.7305 31.8601 36.0422 31.4918 36.4813 31.3218C37.6713 30.8543 38.8047 30.3018 39.8672 29.6926Z" fill="#346ED6"/>
</svg>
