<svg width="60" height="62" viewBox="0 0 60 62" fill="none" xmlns="http://www.w3.org/2000/svg">
<rect y="0.00195312" width="60" height="62" rx="30" fill="#E5FBF1"/>
<path d="M43.4584 35.9604C43.855 35.9604 44.1667 36.2721 44.1667 36.6688V38.0854C44.1667 40.4371 42.2684 42.3354 39.9167 42.3354C39.9167 39.9979 38.0042 38.0854 35.6667 38.0854C33.3292 38.0854 31.4167 39.9979 31.4167 42.3354H28.5834C28.5834 39.9979 26.6709 38.0854 24.3334 38.0854C21.9959 38.0854 20.0834 39.9979 20.0834 42.3354C17.7317 42.3354 15.8334 40.4371 15.8334 38.0854V35.2521C15.8334 34.4729 16.4709 33.8354 17.25 33.8354H30.7084C32.6634 33.8354 34.25 32.2488 34.25 30.2938V22.5021C34.25 21.7229 34.8875 21.0854 35.6667 21.0854H36.8567C37.8767 21.0854 38.8117 21.6379 39.3217 22.5163L40.2284 24.1029C40.3559 24.3296 40.1859 24.6271 39.9167 24.6271C37.9617 24.6271 36.375 26.2138 36.375 28.1688V32.4188C36.375 34.3738 37.9617 35.9604 39.9167 35.9604H43.4584Z" fill="#5EBE85"/>
<path d="M24.3333 45.1686C25.8981 45.1686 27.1667 43.9001 27.1667 42.3353C27.1667 40.7705 25.8981 39.502 24.3333 39.502C22.7685 39.502 21.5 40.7705 21.5 42.3353C21.5 43.9001 22.7685 45.1686 24.3333 45.1686Z" fill="#5EBE85"/>
<path d="M35.6667 45.1686C37.2315 45.1686 38.5 43.9001 38.5 42.3353C38.5 40.7705 37.2315 39.502 35.6667 39.502C34.1019 39.502 32.8334 40.7705 32.8334 42.3353C32.8334 43.9001 34.1019 45.1686 35.6667 45.1686Z" fill="#5EBE85"/>
<path d="M44.1667 31.7528V33.8353H39.9167C39.1375 33.8353 38.5 33.1978 38.5 32.4186V28.1686C38.5 27.3895 39.1375 26.752 39.9167 26.752H41.7442L43.7983 30.3503C44.0392 30.7753 44.1667 31.257 44.1667 31.7528Z" fill="#5EBE85"/>
<path d="M31.53 16.8354H21.0609C18.1709 16.8354 15.8334 19.1729 15.8334 22.0629V31.1154C15.8334 31.8946 16.4709 32.5321 17.25 32.5321H30.2125C31.6575 32.5321 32.8334 31.3563 32.8334 29.9113V18.1388C32.8334 17.4163 32.2525 16.8354 31.53 16.8354ZM26.2884 25.2079C26.2884 25.5763 26.09 25.9305 25.7784 26.1146L24.0075 27.1771C23.8234 27.2905 23.6392 27.3329 23.455 27.3329C23.1009 27.3329 22.7467 27.1488 22.5484 26.823C22.2367 26.313 22.4067 25.6613 22.9025 25.3638L24.1634 24.6129V23.0829C24.1634 22.5021 24.645 22.0204 25.2259 22.0204C25.8067 22.0204 26.2884 22.5021 26.2884 23.0829V25.2079Z" fill="#5EBE85"/>
</svg>
