<svg width="25" height="25" viewBox="0 0 25 25" fill="none" xmlns="http://www.w3.org/2000/svg">
<path d="M22.47 18.457C22.47 18.817 22.39 19.187 22.22 19.547C22.05 19.907 21.83 20.247 21.54 20.567C21.05 21.107 20.51 21.497 19.9 21.747C19.3 21.997 18.65 22.127 17.95 22.127C16.93 22.127 15.84 21.887 14.69 21.397C13.54 20.907 12.39 20.247 11.25 19.417C10.1 18.577 9.01 17.647 7.97 16.617C6.94 15.577 6.01 14.487 5.18 13.347C4.36 12.207 3.7 11.067 3.22 9.93695C2.74 8.79695 2.5 7.70695 2.5 6.66695C2.5 5.98695 2.62 5.33695 2.86 4.73695C3.1 4.12695 3.48 3.56695 4.01 3.06695C4.65 2.43695 5.35 2.12695 6.09 2.12695C6.37 2.12695 6.65 2.18695 6.9 2.30695C7.16 2.42695 7.39 2.60695 7.57 2.86695L9.89 6.13695C10.07 6.38695 10.2 6.61695 10.29 6.83695C10.38 7.04695 10.43 7.25695 10.43 7.44695C10.43 7.68695 10.36 7.92695 10.22 8.15695C10.09 8.38695 9.9 8.62695 9.66 8.86695L8.9 9.65695C8.79 9.76695 8.74 9.89695 8.74 10.057C8.74 10.137 8.75 10.207 8.77 10.287C8.8 10.367 8.83 10.427 8.85 10.487C9.03 10.817 9.34 11.247 9.78 11.767C10.23 12.287 10.71 12.817 11.23 13.347C11.77 13.877 12.29 14.367 12.82 14.817C13.34 15.257 13.77 15.557 14.11 15.737C14.16 15.757 14.22 15.787 14.29 15.817C14.37 15.847 14.45 15.857 14.54 15.857C14.71 15.857 14.84 15.797 14.95 15.687L15.71 14.937C15.96 14.687 16.2 14.497 16.43 14.377C16.66 14.237 16.89 14.167 17.14 14.167C17.33 14.167 17.53 14.207 17.75 14.297C17.97 14.387 18.2 14.517 18.45 14.687L21.76 17.037C22.02 17.217 22.2 17.427 22.31 17.677C22.41 17.927 22.47 18.177 22.47 18.457Z" fill="#346ED6"/>
</svg>
