<svg width="55" height="55" viewBox="0 0 55 55" fill="none" xmlns="http://www.w3.org/2000/svg">
<rect x="0.0605469" y="0.241699" width="54" height="54" rx="27" fill="#E5FBF1"/>
<path d="M21.748 18.3877C21.1672 18.3877 20.6855 17.906 20.6855 17.3252V13.0752C20.6855 12.4944 21.1672 12.0127 21.748 12.0127C22.3289 12.0127 22.8105 12.4944 22.8105 13.0752V17.3252C22.8105 17.906 22.3289 18.3877 21.748 18.3877Z" fill="#5EBE85"/>
<path d="M32.373 18.3877C31.7922 18.3877 31.3105 17.906 31.3105 17.3252V13.0752C31.3105 12.4944 31.7922 12.0127 32.373 12.0127C32.9539 12.0127 33.4355 12.4944 33.4355 13.0752V17.3252C33.4355 17.906 32.9539 18.3877 32.373 18.3877Z" fill="#5EBE85"/>
<path d="M27.0606 30.2027C27.7973 30.2027 28.3356 29.7635 28.3356 29.0694C28.3356 28.361 27.7973 27.9502 27.0606 27.9502C26.324 27.9502 25.7856 28.361 25.7856 29.0694C25.7856 29.7635 26.324 30.2027 27.0606 30.2027Z" fill="#5EBE85"/>
<path d="M27.0606 34.3249C27.9525 34.3249 28.6756 33.7351 28.6756 33.0074C28.6756 32.2798 27.9525 31.6899 27.0606 31.6899C26.1686 31.6899 25.4456 32.2798 25.4456 33.0074C25.4456 33.7351 26.1686 34.3249 27.0606 34.3249Z" fill="#5EBE85"/>
<path d="M37.7848 16.6169C36.8498 15.9227 35.504 16.5885 35.504 17.7644V17.906C35.504 19.5635 34.314 21.0935 32.6565 21.2635C30.744 21.4619 29.129 19.9602 29.129 18.0902V16.6169C29.129 15.8377 28.4915 15.2002 27.7123 15.2002H26.409C25.6298 15.2002 24.9923 15.8377 24.9923 16.6169V18.0902C24.9923 19.2094 24.4115 20.201 23.5331 20.7535C23.4056 20.8385 23.264 20.9094 23.1223 20.9802C22.9948 21.051 22.8531 21.1077 22.6973 21.1502C22.5273 21.2069 22.3431 21.2494 22.1448 21.2635C21.9181 21.2919 21.6915 21.2919 21.4648 21.2635C21.2665 21.2494 21.0823 21.2069 20.9123 21.1502C20.7706 21.1077 20.629 21.051 20.4873 20.9802C20.3456 20.9094 20.204 20.8385 20.0765 20.7535C19.184 20.1302 18.6173 19.0535 18.6173 17.906V17.7644C18.6173 16.6735 17.4556 16.0219 16.5348 16.4894C16.5206 16.5035 16.5065 16.5035 16.4923 16.5177C16.4356 16.546 16.3931 16.5744 16.3365 16.6169C16.294 16.6594 16.2373 16.6877 16.1948 16.7302C15.7981 17.0419 15.444 17.396 15.1465 17.7785C14.9906 17.9485 14.8631 18.1327 14.7498 18.3169C14.7356 18.331 14.7215 18.3452 14.7073 18.3735C14.5798 18.5577 14.4665 18.7702 14.3673 18.9685C14.339 18.9969 14.3248 19.011 14.3248 19.0394C14.2398 19.2094 14.1548 19.3794 14.0981 19.5635C14.0556 19.6344 14.0415 19.691 14.0131 19.7619C13.9281 19.9744 13.8715 20.1869 13.8148 20.3994C13.7581 20.5977 13.7156 20.8102 13.6873 21.0227C13.659 21.1785 13.6448 21.3344 13.6306 21.5044C13.6165 21.7027 13.6023 21.901 13.6023 22.0994V34.5094C13.6023 38.3202 16.6906 41.4085 20.5015 41.4085H33.6198C37.4306 41.4085 40.519 38.3202 40.519 34.5094V22.0994C40.519 19.8469 39.4423 17.8777 37.7848 16.6169ZM27.0606 36.096C24.8648 36.096 23.519 35.0052 23.519 33.2485C23.519 32.2852 24.0148 31.4494 24.879 30.9535C24.2556 30.5144 23.8448 29.8627 23.8448 28.9702C23.8448 27.1285 25.3181 26.1794 27.0606 26.1794C28.8031 26.1794 30.2623 27.1285 30.2623 28.9702C30.2623 29.8627 29.8656 30.5144 29.2281 30.9535C30.1065 31.4494 30.6023 32.2852 30.6023 33.2485C30.6023 35.0052 29.2423 36.096 27.0606 36.096Z" fill="#5EBE85"/>
</svg>
