<svg width="54" height="54" viewBox="0 0 54 54" fill="none" xmlns="http://www.w3.org/2000/svg">
<rect width="54" height="54" rx="27" fill="#E5FBF1"/>
<path d="M36.9167 31.25C33.7858 31.25 31.25 33.7858 31.25 36.9167C31.25 37.9792 31.5475 38.985 32.0717 39.835C33.0492 41.4783 34.8483 42.5833 36.9167 42.5833C38.985 42.5833 40.7842 41.4783 41.7617 39.835C42.2858 38.985 42.5833 37.9792 42.5833 36.9167C42.5833 33.7858 40.0475 31.25 36.9167 31.25ZM39.8492 36.3075L36.8317 39.0983C36.6333 39.2825 36.3642 39.3817 36.1092 39.3817C35.84 39.3817 35.5708 39.2825 35.3583 39.07L33.9558 37.6675C33.545 37.2567 33.545 36.5767 33.9558 36.1658C34.3667 35.755 35.0467 35.755 35.4575 36.1658L36.1375 36.8458L38.4042 34.7492C38.8292 34.3525 39.5092 34.3808 39.9058 34.8058C40.3025 35.2308 40.2742 35.8967 39.8492 36.3075Z" fill="#5EBE85"/>
<path d="M41.1663 20.6961V21.3336C41.1663 22.1127 40.5288 22.7502 39.7497 22.7502H14.2497C13.4705 22.7502 12.833 22.1127 12.833 21.3336V20.6819C12.833 17.4377 15.4538 14.8169 18.698 14.8169H35.2872C38.5313 14.8169 41.1663 17.4519 41.1663 20.6961Z" fill="#5EBE85"/>
<path d="M12.833 26.2917V33.3183C12.833 36.5625 15.4538 39.1833 18.698 39.1833H27.5663C28.388 39.1833 29.0963 38.4892 29.0255 37.6675C28.8272 35.5 29.5213 33.1483 31.448 31.2783C32.2413 30.4992 33.2188 29.9042 34.2813 29.5642C36.0522 28.9975 37.7663 29.0683 39.2822 29.5783C40.203 29.89 41.1663 29.2242 41.1663 28.2467V26.2775C41.1663 25.4983 40.5288 24.8608 39.7497 24.8608H14.2497C13.4705 24.875 12.833 25.5125 12.833 26.2917ZM21.333 34.4375H18.4997C17.9188 34.4375 17.4372 33.9558 17.4372 33.375C17.4372 32.7942 17.9188 32.3125 18.4997 32.3125H21.333C21.9138 32.3125 22.3955 32.7942 22.3955 33.375C22.3955 33.9558 21.9138 34.4375 21.333 34.4375Z" fill="#5EBE85"/>
</svg>
