<svg width="54" height="54" viewBox="0 0 54 54" fill="none" xmlns="http://www.w3.org/2000/svg">
<rect y="0.00195312" width="54" height="54" rx="27" fill="#DFEBFF"/>
<path d="M27.0002 12.8354C19.1943 12.8354 12.8335 19.1963 12.8335 27.0021C12.8335 34.8079 19.1943 41.1688 27.0002 41.1688C34.806 41.1688 41.1668 34.8079 41.1668 27.0021C41.1668 19.1963 34.806 12.8354 27.0002 12.8354ZM33.1627 32.0596C32.9643 32.3996 32.6102 32.5838 32.2418 32.5838C32.0577 32.5838 31.8735 32.5413 31.7035 32.4279L27.3118 29.8071C26.221 29.1554 25.4135 27.7246 25.4135 26.4638V20.6554C25.4135 20.0746 25.8952 19.5929 26.476 19.5929C27.0568 19.5929 27.5385 20.0746 27.5385 20.6554V26.4638C27.5385 26.9738 27.9635 27.7246 28.4027 27.9796L32.7943 30.6004C33.3043 30.8979 33.4743 31.5496 33.1627 32.0596Z" fill="#346ED6"/>
</svg>
