<svg width="54" height="54" viewBox="0 0 54 54" fill="none" xmlns="http://www.w3.org/2000/svg">
<rect y="0.00219727" width="54" height="54" rx="27" fill="#F8DDDD"/>
<path d="M34.8342 21.0096C34.735 20.9954 34.6358 20.9954 34.5367 21.0096C32.3408 20.9388 30.5983 19.1396 30.5983 16.9296C30.5983 14.6771 32.4258 12.8354 34.6925 12.8354C36.945 12.8354 38.7867 14.6629 38.7867 16.9296C38.7725 19.1396 37.03 20.9388 34.8342 21.0096Z" fill="#E85F59"/>
<path d="M39.4525 30.827C37.8658 31.8895 35.6417 32.2862 33.5875 32.017C34.1258 30.8554 34.4092 29.5662 34.4233 28.2062C34.4233 26.7895 34.1117 25.4437 33.5167 24.2679C35.6133 23.9845 37.8375 24.3812 39.4383 25.4437C41.6767 26.917 41.6767 29.3395 39.4525 30.827Z" fill="#E85F59"/>
<path d="M19.1233 21.0096C19.2225 20.9954 19.3217 20.9954 19.4208 21.0096C21.6167 20.9388 23.3592 19.1396 23.3592 16.9296C23.3592 14.6629 21.5317 12.8354 19.265 12.8354C17.0125 12.8354 15.185 14.6629 15.185 16.9296C15.185 19.1396 16.9275 20.9388 19.1233 21.0096Z" fill="#E85F59"/>
<path d="M19.2791 28.206C19.2791 29.5801 19.5766 30.8835 20.115 32.0593C18.1175 32.2718 16.035 31.8468 14.505 30.841C12.2666 29.3535 12.2666 26.931 14.505 25.4435C16.0208 24.4235 18.16 24.0126 20.1716 24.2393C19.5908 25.4293 19.2791 26.7751 19.2791 28.206Z" fill="#E85F59"/>
<path d="M27.17 32.4845C27.0567 32.4703 26.9292 32.4703 26.8017 32.4845C24.195 32.3995 22.1125 30.2603 22.1125 27.6253C22.1267 24.9336 24.2942 22.752 27 22.752C29.6917 22.752 31.8733 24.9336 31.8733 27.6253C31.8592 30.2603 29.7908 32.3995 27.17 32.4845Z" fill="#E85F59"/>
<path d="M22.5659 35.4172C20.4267 36.848 20.4267 39.1997 22.5659 40.6164C25.0025 42.2455 28.9975 42.2455 31.4342 40.6164C33.5734 39.1855 33.5734 36.8339 31.4342 35.4172C29.0117 33.788 25.0167 33.788 22.5659 35.4172Z" fill="#E85F59"/>
</svg>
