<svg width="54" height="55" viewBox="0 0 54 55" fill="none" xmlns="http://www.w3.org/2000/svg">
<rect y="0.5" width="54" height="54" rx="27" fill="#FFE8D4"/>
<path d="M37.9505 33.3082C37.9505 33.2657 37.9788 33.2232 37.9788 33.1665V19.7082C37.9788 17.5549 36.2363 15.8124 34.083 15.8124H28.5155L30.513 14.1549C30.9663 13.7724 31.023 13.1065 30.6547 12.6532C30.2722 12.1999 29.6063 12.1432 29.153 12.5115L24.903 16.0532C24.6622 16.2515 24.5205 16.549 24.5205 16.8749C24.5205 17.2007 24.6622 17.484 24.903 17.6965L29.153 21.2382C29.3513 21.4082 29.5922 21.479 29.833 21.479C30.1305 21.479 30.4422 21.3515 30.6547 21.0965C31.0372 20.6432 30.9663 19.9774 30.513 19.5949L28.5155 17.9374H34.083C35.0605 17.9374 35.8538 18.7307 35.8538 19.7082V33.1665C35.8538 33.2232 35.8822 33.2657 35.8822 33.3082C34.0405 33.7757 32.6663 35.4332 32.6663 37.4165C32.6663 39.7682 34.5647 41.6665 36.9163 41.6665C39.268 41.6665 41.1663 39.7682 41.1663 37.4165C41.1663 35.4332 39.7922 33.7757 37.9505 33.3082Z" fill="#FFA760"/>
<path d="M29.0963 37.3033L24.8463 33.7616C24.393 33.3791 23.7272 33.4499 23.3447 33.9033C22.9622 34.3566 23.033 35.0224 23.4863 35.4049L25.4838 37.0624H19.9163C18.9388 37.0624 18.1455 36.2691 18.1455 35.2916V21.8333C18.1455 21.7766 18.1172 21.7341 18.1172 21.6916C19.9588 21.2241 21.333 19.5666 21.333 17.5833C21.333 15.2316 19.4347 13.3333 17.083 13.3333C14.7313 13.3333 12.833 15.2316 12.833 17.5833C12.833 19.5666 14.2072 21.2241 16.0488 21.6916C16.0488 21.7341 16.0205 21.7766 16.0205 21.8333V35.2916C16.0205 37.4449 17.763 39.1874 19.9163 39.1874H25.4838L23.4863 40.8449C23.033 41.2274 22.9763 41.8933 23.3447 42.3466C23.5572 42.6016 23.8547 42.7291 24.1663 42.7291C24.4072 42.7291 24.648 42.6441 24.8463 42.4883L29.0963 38.9466C29.3372 38.7483 29.4788 38.4508 29.4788 38.1249C29.4788 37.7991 29.3372 37.5158 29.0963 37.3033Z" fill="#FFA760"/>
</svg>
