<svg width="54" height="54" viewBox="0 0 54 54" fill="none" xmlns="http://www.w3.org/2000/svg">
<rect width="54" height="54" rx="27" fill="#F8DDDD"/>
<path d="M18.296 13.7761C20.5782 12.7391 23.6574 12.125 27 12.125C30.3426 12.125 33.4217 12.7391 35.704 13.7761C37.8906 14.7706 39.75 16.3601 39.75 18.5C39.75 20.6399 37.8906 22.2294 35.704 23.2239C33.4217 24.2609 30.3426 24.875 27 24.875C23.6574 24.875 20.5782 24.2609 18.296 23.2239C16.1094 22.2294 14.25 20.6399 14.25 18.5C14.25 16.3601 16.1094 14.7706 18.296 13.7761Z" fill="#E85F59"/>
<path d="M14.25 23.092V24.8749C14.25 27.0148 16.1094 28.6043 18.296 29.5988C20.5782 30.6337 23.6574 31.2499 27 31.2499C30.3426 31.2499 33.4217 30.6358 35.704 29.5988C37.8906 28.6043 39.75 27.0148 39.75 24.8749V23.092C38.7789 24.01 37.6165 24.6879 36.5837 25.1575C33.9657 26.3475 30.5742 26.9999 27 26.9999C23.4257 26.9999 20.0342 26.3475 17.4162 25.1575C16.3835 24.69 15.2211 24.01 14.25 23.092Z" fill="#E85F59"/>
<path d="M14.25 29.467V31.2499C14.25 33.3898 16.1094 34.9793 18.296 35.9738C20.5782 37.0108 23.6574 37.6249 27 37.6249C30.3426 37.6249 33.4217 37.0108 35.704 35.9738C37.8906 34.9793 39.75 33.3898 39.75 31.2499V29.467C38.7789 30.385 37.6165 31.0629 36.5837 31.5325C33.9657 32.7225 30.5742 33.3749 27 33.3749C23.4257 33.3749 20.0342 32.7225 17.4162 31.5325C16.3835 31.065 15.2211 30.385 14.25 29.467Z" fill="#E85F59"/>
<path d="M14.25 35.842V37.6249C14.25 39.7648 16.1094 41.3543 18.296 42.3488C20.5782 43.3858 23.6574 43.9999 27 43.9999C30.3426 43.9999 33.4217 43.3858 35.704 42.3488C37.8906 41.3543 39.75 39.7648 39.75 37.6249V35.842C38.7789 36.76 37.6165 37.4379 36.5837 37.9075C33.9657 39.0975 30.5742 39.7499 27 39.7499C23.4257 39.7499 20.0342 39.0975 17.4162 37.9075C16.3835 37.44 15.2211 36.76 14.25 35.842Z" fill="#E85F59"/>
</svg>
