<svg width="54" height="54" viewBox="0 0 54 54" fill="none" xmlns="http://www.w3.org/2000/svg">
<rect y="0.00195312" width="54" height="54" rx="27" fill="#FFDEDA"/>
<path d="M27.0002 12.8354C19.1802 12.8354 12.8335 19.1821 12.8335 27.0021C12.8335 34.8221 19.1802 41.1688 27.0002 41.1688C34.8202 41.1688 41.1668 34.8221 41.1668 27.0021C41.1668 19.1821 34.8202 12.8354 27.0002 12.8354ZM27.4677 34.0854C27.2127 34.1704 26.7735 34.1704 26.5185 34.0854C24.3085 33.3346 19.3502 30.1754 19.3502 24.8204C19.3502 22.4546 21.2485 20.5421 23.6002 20.5421C24.9885 20.5421 26.221 21.2079 27.0002 22.2563C27.7652 21.2221 29.0118 20.5421 30.4002 20.5421C32.7518 20.5421 34.6502 22.4546 34.6502 24.8204C34.6502 30.1754 29.6918 33.3346 27.4677 34.0854Z" fill="#F05B47"/>
</svg>
