<svg width="52" height="53" viewBox="0 0 52 53" fill="none" xmlns="http://www.w3.org/2000/svg">
<rect y="0.251953" width="52" height="52" rx="26" fill="#B3FFDD"/>
<path d="M39.3333 38.5854H12.6666C12.12 38.5854 11.6666 39.0388 11.6666 39.5854C11.6666 40.1321 12.12 40.5854 12.6666 40.5854H39.3333C39.88 40.5854 40.3333 40.1321 40.3333 39.5854C40.3333 39.0388 39.88 38.5854 39.3333 38.5854Z" fill="#5EBE85"/>
<path d="M32.6667 12.9185H19.3333C15.3333 12.9185 14 15.3051 14 18.2518V39.5851H22V31.5051C22 30.8118 22.56 30.2518 23.2533 30.2518H28.76C29.44 30.2518 30.0133 30.8118 30.0133 31.5051V39.5851H38.0133V18.2518C38 15.3051 36.6667 12.9185 32.6667 12.9185ZM29.3333 22.5851H27V24.9185C27 25.4651 26.5467 25.9185 26 25.9185C25.4533 25.9185 25 25.4651 25 24.9185V22.5851H22.6667C22.12 22.5851 21.6667 22.1318 21.6667 21.5851C21.6667 21.0385 22.12 20.5851 22.6667 20.5851H25V18.2518C25 17.7051 25.4533 17.2518 26 17.2518C26.5467 17.2518 27 17.7051 27 18.2518V20.5851H29.3333C29.88 20.5851 30.3333 21.0385 30.3333 21.5851C30.3333 22.1318 29.88 22.5851 29.3333 22.5851Z" fill="#5EBE85"/>
</svg>
