<svg width="54" height="54" viewBox="0 0 54 54" fill="none" xmlns="http://www.w3.org/2000/svg">
<rect width="54" height="54" rx="27" fill="#DFEBFF"/>
<path d="M36.2651 15.9076L28.4735 12.9892C27.666 12.6917 26.3485 12.6917 25.541 12.9892L17.7493 15.9076C16.2476 16.4742 15.0293 18.2309 15.0293 19.8317V31.3067C15.0293 32.4542 15.7801 33.9701 16.701 34.6501L24.4926 40.4726C25.8668 41.5067 28.1193 41.5067 29.4935 40.4726L37.2851 34.6501C38.206 33.9559 38.9568 32.4542 38.9568 31.3067V19.8317C38.971 18.2309 37.7526 16.4742 36.2651 15.9076ZM28.0626 28.2326V31.9584C28.0626 32.5392 27.581 33.0209 27.0001 33.0209C26.4193 33.0209 25.9376 32.5392 25.9376 31.9584V28.2326C24.5068 27.7792 23.4585 26.4476 23.4585 24.8751C23.4585 22.9201 25.0451 21.3334 27.0001 21.3334C28.9551 21.3334 30.5418 22.9201 30.5418 24.8751C30.5418 26.4617 29.4935 27.7792 28.0626 28.2326Z" fill="#346ED6"/>
</svg>
