<svg width="54" height="55" viewBox="0 0 54 55" fill="none" xmlns="http://www.w3.org/2000/svg">
<rect y="0.751953" width="54" height="54" rx="27" fill="#FFC1C1"/>
<path d="M34.8342 21.7596C34.7351 21.7454 34.6359 21.7454 34.5367 21.7596C32.3409 21.6888 30.5984 19.8896 30.5984 17.6796C30.5984 15.4271 32.4259 13.5854 34.6926 13.5854C36.9451 13.5854 38.7867 15.4129 38.7867 17.6796C38.7726 19.8896 37.0301 21.6888 34.8342 21.7596Z" fill="#E85F59"/>
<path d="M39.4526 31.577C37.8659 32.6395 35.6417 33.0362 33.5876 32.767C34.1259 31.6054 34.4092 30.3162 34.4234 28.9562C34.4234 27.5395 34.1117 26.1937 33.5167 25.0179C35.6134 24.7345 37.8376 25.1312 39.4384 26.1937C41.6767 27.667 41.6767 30.0895 39.4526 31.577Z" fill="#E85F59"/>
<path d="M19.1234 21.7596C19.2226 21.7454 19.3217 21.7454 19.4209 21.7596C21.6167 21.6888 23.3592 19.8896 23.3592 17.6796C23.3592 15.4129 21.5317 13.5854 19.2651 13.5854C17.0126 13.5854 15.1851 15.4129 15.1851 17.6796C15.1851 19.8896 16.9276 21.6888 19.1234 21.7596Z" fill="#E85F59"/>
<path d="M19.2792 28.956C19.2792 30.3301 19.5767 31.6335 20.115 32.8093C18.1175 33.0218 16.035 32.5968 14.505 31.591C12.2667 30.1035 12.2667 27.681 14.505 26.1935C16.0209 25.1735 18.16 24.7626 20.1717 24.9893C19.5909 26.1793 19.2792 27.5251 19.2792 28.956Z" fill="#E85F59"/>
<path d="M27.17 33.2345C27.0567 33.2203 26.9292 33.2203 26.8017 33.2345C24.195 33.1495 22.1125 31.0103 22.1125 28.3753C22.1267 25.6836 24.2942 23.502 27 23.502C29.6917 23.502 31.8734 25.6836 31.8734 28.3753C31.8592 31.0103 29.7909 33.1495 27.17 33.2345Z" fill="#E85F59"/>
<path d="M22.5658 36.1672C20.4266 37.598 20.4266 39.9497 22.5658 41.3664C25.0025 42.9955 28.9975 42.9955 31.4341 41.3664C33.5733 39.9355 33.5733 37.5839 31.4341 36.1672C29.0116 34.538 25.0166 34.538 22.5658 36.1672Z" fill="#E85F59"/>
</svg>
