<svg width="25" height="25" viewBox="0 0 25 25" fill="none" xmlns="http://www.w3.org/2000/svg">
<g clip-path="url(#clip0_2692_3116)">
<path d="M21.12 8.57695C20.07 3.95695 16.04 1.87695 12.5 1.87695C12.5 1.87695 12.5 1.87695 12.49 1.87695C8.95997 1.87695 4.91997 3.94695 3.86997 8.56695C2.69997 13.727 5.85997 18.097 8.71997 20.847C9.77997 21.867 11.14 22.377 12.5 22.377C13.86 22.377 15.22 21.867 16.27 20.847C19.13 18.097 22.29 13.737 21.12 8.57695ZM12.5 13.587C10.76 13.587 9.34997 12.177 9.34997 10.437C9.34997 8.69695 10.76 7.28695 12.5 7.28695C14.24 7.28695 15.65 8.69695 15.65 10.437C15.65 12.177 14.24 13.587 12.5 13.587Z" fill="#346ED6"/>
</g>
<defs>
<clipPath id="clip0_2692_3116">
<rect width="24" height="24" fill="white" transform="translate(0.5 0.126953)"/>
</clipPath>
</defs>
</svg>
