<svg width="54" height="54" viewBox="0 0 54 54" fill="none" xmlns="http://www.w3.org/2000/svg">
<rect y="0.00195312" width="54" height="54" rx="27" fill="#FFE8D5"/>
<path d="M27 41.877C36.3883 41.877 44 35.2172 44 27.002C44 18.7867 36.3883 12.127 27 12.127C17.6117 12.127 10 18.7867 10 27.002C10 30.742 11.5789 34.1632 14.1863 36.777C13.9801 38.936 13.3001 41.3032 12.5479 43.0797C12.38 43.475 12.7051 43.917 13.128 43.849C17.922 43.0627 20.7716 41.8557 22.0105 41.2267C23.6381 41.6608 25.3155 41.8794 27 41.877Z" fill="#FFA860"/>
<path d="M33.313 23.2368C32.9983 23.068 32.3384 22.8915 31.4406 23.5207L30.3126 24.3188C30.2282 21.9323 29.1922 20.9961 26.6753 20.9961H22.0711C19.4467 20.9961 18.4261 22.0167 18.4261 24.6411V30.7799C18.4261 32.5449 19.3853 34.4249 22.0711 34.4249H26.6753C29.1922 34.4249 30.2282 33.4887 30.3126 31.1022L31.4406 31.9003C31.9164 32.2379 32.3307 32.3454 32.6607 32.3454C32.9446 32.3454 33.1672 32.261 33.313 32.1842C33.6276 32.0231 34.1571 31.5857 34.1571 30.4884V24.9327C34.1571 23.8353 33.6276 23.3979 33.313 23.2368ZM25.5242 27.2347C24.7339 27.2347 24.0816 26.5902 24.0816 25.7921C24.0816 24.994 24.7339 24.3495 25.5242 24.3495C26.3146 24.3495 26.9669 24.994 26.9669 25.7921C26.9669 26.5902 26.3146 27.2347 25.5242 27.2347Z" fill="white"/>
</svg>
