<svg width="45" height="45" viewBox="0 0 45 45" fill="none" xmlns="http://www.w3.org/2000/svg">
<rect x="0.5" y="0.526367" width="44" height="44" rx="6" fill="#346ED6"/>
<path d="M13.25 29.1762C12.84 29.1762 12.5 28.8362 12.5 28.4262V22.7262C12.45 20.0162 13.46 17.4562 15.34 15.5362C17.22 13.6262 19.74 12.5762 22.45 12.5762C27.99 12.5762 32.5 17.0862 32.5 22.6262V28.3262C32.5 28.7362 32.16 29.0762 31.75 29.0762C31.34 29.0762 31 28.7362 31 28.3262V22.6262C31 17.9162 27.17 14.0762 22.45 14.0762C20.14 14.0762 18 14.9662 16.41 16.5862C14.81 18.2162 13.96 20.3862 14 22.7062V28.4162C14 28.8362 13.67 29.1762 13.25 29.1762Z" fill="white"/>
<path d="M16.44 22.9766H16.31C14.21 22.9766 12.5 24.6866 12.5 26.7866V28.6666C12.5 30.7666 14.21 32.4766 16.31 32.4766H16.44C18.54 32.4766 20.25 30.7666 20.25 28.6666V26.7866C20.25 24.6866 18.54 22.9766 16.44 22.9766Z" fill="white"/>
<path d="M28.69 22.9766H28.56C26.46 22.9766 24.75 24.6866 24.75 26.7866V28.6666C24.75 30.7666 26.46 32.4766 28.56 32.4766H28.69C30.79 32.4766 32.5 30.7666 32.5 28.6666V26.7866C32.5 24.6866 30.79 22.9766 28.69 22.9766Z" fill="white"/>
</svg>
