<svg width="45" height="45" viewBox="0 0 45 45" fill="none" xmlns="http://www.w3.org/2000/svg">
<rect x="0.5" y="0.526367" width="44" height="44" rx="6" fill="#346ED6"/>
<g clip-path="url(#clip0_2692_2850)">
<path d="M31.12 18.9764C30.07 14.3564 26.04 12.2764 22.5 12.2764C22.5 12.2764 22.5 12.2764 22.49 12.2764C18.96 12.2764 14.92 14.3464 13.87 18.9664C12.7 24.1264 15.86 28.4964 18.72 31.2464C19.78 32.2664 21.14 32.7764 22.5 32.7764C23.86 32.7764 25.22 32.2664 26.27 31.2464C29.13 28.4964 32.29 24.1364 31.12 18.9764ZM22.5 23.9864C20.76 23.9864 19.35 22.5764 19.35 20.8364C19.35 19.0964 20.76 17.6864 22.5 17.6864C24.24 17.6864 25.65 19.0964 25.65 20.8364C25.65 22.5764 24.24 23.9864 22.5 23.9864Z" fill="white"/>
</g>
<defs>
<clipPath id="clip0_2692_2850">
<rect width="24" height="24" fill="white" transform="translate(10.5 10.5264)"/>
</clipPath>
</defs>
</svg>
