<svg width="54" height="54" viewBox="0 0 54 54" fill="none" xmlns="http://www.w3.org/2000/svg">
<rect y="0.00219727" width="54" height="54" rx="27" fill="#DFEBFF"/>
<path d="M26.915 13.1327L23.5008 21.0802H20.0866C19.52 21.0802 18.9675 21.1227 18.4291 21.236L19.8458 17.836L19.9025 17.7085L19.9875 17.4819C20.03 17.3827 20.0583 17.2977 20.1008 17.2269C21.7441 13.416 23.5858 12.226 26.915 13.1327Z" fill="#346ED6"/>
<path d="M36.5342 21.4626L36.5058 21.4484C35.6558 21.2076 34.7916 21.0801 33.9133 21.0801H25.045L28.2325 13.6709L28.275 13.5718C28.4733 13.6426 28.6858 13.7418 28.8983 13.8126L32.0292 15.1301C33.7717 15.8526 34.99 16.6034 35.7408 17.5101C35.8683 17.6801 35.9817 17.8359 36.095 18.0201C36.2225 18.2184 36.3217 18.4168 36.3783 18.6293C36.435 18.7568 36.4775 18.8701 36.5058 18.9976C36.7183 19.7201 36.7325 20.5418 36.5342 21.4626Z" fill="#346ED6"/>
<path d="M27.7367 35.0204H28.0909C28.5159 35.0204 28.87 34.6379 28.87 34.1704C28.87 33.5754 28.7 33.4904 28.3317 33.3487L27.7367 33.1362V35.0204Z" fill="#346ED6"/>
<path d="M35.9108 23.4884C35.2733 23.3042 34.6075 23.2051 33.9133 23.2051H20.0867C19.1233 23.2051 18.2167 23.3892 17.3667 23.7576C14.9017 24.8201 13.1733 27.2709 13.1733 30.1184V32.8809C13.1733 33.2209 13.2017 33.5467 13.2442 33.8867C13.5558 38.3917 15.9642 40.8001 20.4692 41.0976C20.795 41.1401 21.1208 41.1684 21.475 41.1684H32.525C37.7667 41.1684 40.5292 38.6751 40.7983 33.7167C40.8125 33.4476 40.8267 33.1642 40.8267 32.8809V30.1184C40.8267 26.9876 38.7442 24.3526 35.9108 23.4884ZM28.8133 31.9601C29.465 32.1867 30.3433 32.6684 30.3433 34.1701C30.3433 35.4592 29.3375 36.4934 28.0908 36.4934H27.7367V36.8051C27.7367 37.2159 27.4108 37.5417 27 37.5417C26.5892 37.5417 26.2633 37.2159 26.2633 36.8051V36.4934H26.1358C24.7758 36.4934 23.6567 35.3459 23.6567 33.9292C23.6567 33.5184 23.9825 33.1926 24.3933 33.1926C24.8042 33.1926 25.13 33.5184 25.13 33.9292C25.13 34.5242 25.5833 35.0201 26.1358 35.0201H26.2633V32.6259L25.1867 32.2434C24.535 32.0167 23.6567 31.5351 23.6567 30.0334C23.6567 28.7442 24.6625 27.7101 25.9092 27.7101H26.2633V27.3984C26.2633 26.9876 26.5892 26.6617 27 26.6617C27.4108 26.6617 27.7367 26.9876 27.7367 27.3984V27.7101H27.8642C29.2242 27.7101 30.3433 28.8576 30.3433 30.2742C30.3433 30.6851 30.0175 31.0109 29.6067 31.0109C29.1958 31.0109 28.87 30.6851 28.87 30.2742C28.87 29.6792 28.4167 29.1834 27.8642 29.1834H27.7367V31.5776L28.8133 31.9601Z" fill="#346ED6"/>
<path d="M25.13 30.0336C25.13 30.6286 25.3 30.7136 25.6683 30.8553L26.2633 31.0678V29.1836H25.9092C25.47 29.1836 25.13 29.5661 25.13 30.0336Z" fill="#346ED6"/>
</svg>
