<svg width="54" height="55" viewBox="0 0 54 55" fill="none" xmlns="http://www.w3.org/2000/svg">
<rect y="0.751953" width="54" height="54" rx="27" fill="#DFEBFF"/>
<path d="M32.0858 17.8354H31.6041V13.5854C31.6041 13.0046 31.1225 12.5229 30.5416 12.5229C29.9608 12.5229 29.4791 13.0046 29.4791 13.5854V17.8354H24.5208V13.5854C24.5208 13.0046 24.0391 12.5229 23.4583 12.5229C22.8775 12.5229 22.3958 13.0046 22.3958 13.5854V17.8354H21.9141C20.4266 17.8354 19.2083 19.0538 19.2083 20.5413V27.7521C19.2083 30.8688 21.3333 33.4188 24.875 33.4188H25.9375V41.9188C25.9375 42.4996 26.4191 42.9813 27 42.9813C27.5808 42.9813 28.0625 42.4996 28.0625 41.9188V33.4188H29.125C32.6666 33.4188 34.7916 30.8688 34.7916 27.7521V20.5413C34.7916 19.0538 33.5733 17.8354 32.0858 17.8354Z" fill="#346ED6"/>
</svg>
