<svg width="25" height="25" viewBox="0 0 25 25" fill="none" xmlns="http://www.w3.org/2000/svg">
<path d="M17.5 3.62695H7.5C4.5 3.62695 2.5 5.12695 2.5 8.62695V15.627C2.5 19.127 4.5 20.627 7.5 20.627H17.5C20.5 20.627 22.5 19.127 22.5 15.627V8.62695C22.5 5.12695 20.5 3.62695 17.5 3.62695ZM17.97 9.71695L14.84 12.217C14.18 12.747 13.34 13.007 12.5 13.007C11.66 13.007 10.81 12.747 10.16 12.217L7.03 9.71695C6.71 9.45695 6.66 8.97695 6.91 8.65695C7.17 8.33695 7.64 8.27695 7.96 8.53695L11.09 11.037C11.85 11.647 13.14 11.647 13.9 11.037L17.03 8.53695C17.35 8.27695 17.83 8.32695 18.08 8.65695C18.34 8.97695 18.29 9.45695 17.97 9.71695Z" fill="#346ED6"/>
</svg>
