<svg width="136" height="24" viewBox="0 0 136 24" fill="none" xmlns="http://www.w3.org/2000/svg">
<path d="M11.0489 2.929C11.3483 2.00769 12.6517 2.00769 12.9511 2.929L14.4697 7.60277C14.6035 8.01479 14.9875 8.29375 15.4207 8.29375H20.335C21.3037 8.29375 21.7065 9.53336 20.9228 10.1028L16.947 12.9913C16.5966 13.246 16.4499 13.6973 16.5838 14.1093L18.1024 18.7831C18.4017 19.7044 17.3472 20.4705 16.5635 19.9011L12.5878 17.0126C12.2373 16.758 11.7627 16.758 11.4122 17.0126L7.43648 19.9011C6.65276 20.4705 5.59828 19.7044 5.89763 18.7831L7.41623 14.1093C7.55011 13.6973 7.40345 13.246 7.05296 12.9913L3.07722 10.1028C2.29351 9.53337 2.69628 8.29375 3.66501 8.29375H8.57929C9.01252 8.29375 9.39647 8.01479 9.53035 7.60277L11.0489 2.929Z" fill="#346ED6"/>
<path d="M39.0489 2.929C39.3483 2.00769 40.6517 2.00769 40.9511 2.929L42.4697 7.60277C42.6035 8.01479 42.9875 8.29375 43.4207 8.29375H48.335C49.3037 8.29375 49.7065 9.53336 48.9228 10.1028L44.947 12.9913C44.5966 13.246 44.4499 13.6973 44.5838 14.1093L46.1024 18.7831C46.4017 19.7044 45.3472 20.4705 44.5635 19.9011L40.5878 17.0126C40.2373 16.758 39.7627 16.758 39.4122 17.0126L35.4365 19.9011C34.6528 20.4705 33.5983 19.7044 33.8976 18.7831L35.4162 14.1093C35.5501 13.6973 35.4034 13.246 35.053 12.9913L31.0772 10.1028C30.2935 9.53337 30.6963 8.29375 31.665 8.29375H36.5793C37.0125 8.29375 37.3965 8.01479 37.5303 7.60277L39.0489 2.929Z" fill="#346ED6"/>
<path d="M67.0489 2.929C67.3483 2.00769 68.6517 2.00769 68.9511 2.929L70.4697 7.60277C70.6035 8.01479 70.9875 8.29375 71.4207 8.29375H76.335C77.3037 8.29375 77.7065 9.53336 76.9228 10.1028L72.947 12.9913C72.5966 13.246 72.4499 13.6973 72.5838 14.1093L74.1024 18.7831C74.4017 19.7044 73.3472 20.4705 72.5635 19.9011L68.5878 17.0126C68.2373 16.758 67.7627 16.758 67.4122 17.0126L63.4365 19.9011C62.6528 20.4705 61.5983 19.7044 61.8976 18.7831L63.4162 14.1093C63.5501 13.6973 63.4034 13.246 63.053 12.9913L59.0772 10.1028C58.2935 9.53337 58.6963 8.29375 59.665 8.29375H64.5793C65.0125 8.29375 65.3965 8.01479 65.5303 7.60277L67.0489 2.929Z" fill="#346ED6"/>
<path d="M95.0489 2.929C95.3483 2.00769 96.6517 2.00769 96.9511 2.929L98.4697 7.60277C98.6035 8.01479 98.9875 8.29375 99.4207 8.29375H104.335C105.304 8.29375 105.706 9.53336 104.923 10.1028L100.947 12.9913C100.597 13.246 100.45 13.6973 100.584 14.1093L102.102 18.7831C102.402 19.7044 101.347 20.4705 100.564 19.9011L96.5878 17.0126C96.2373 16.758 95.7627 16.758 95.4122 17.0126L91.4365 19.9011C90.6528 20.4705 89.5983 19.7044 89.8976 18.7831L91.4162 14.1093C91.5501 13.6973 91.4034 13.246 91.053 12.9913L87.0772 10.1028C86.2935 9.53337 86.6963 8.29375 87.665 8.29375H92.5793C93.0125 8.29375 93.3965 8.01479 93.5303 7.60277L95.0489 2.929Z" fill="#346ED6"/>
<path d="M123.049 2.929C123.348 2.00769 124.652 2.00769 124.951 2.929L126.47 7.60277C126.604 8.01479 126.987 8.29375 127.421 8.29375H132.335C133.304 8.29375 133.706 9.53336 132.923 10.1028L128.947 12.9913C128.597 13.246 128.45 13.6973 128.584 14.1093L130.102 18.7831C130.402 19.7044 129.347 20.4705 128.564 19.9011L124.588 17.0126C124.237 16.758 123.763 16.758 123.412 17.0126L119.436 19.9011C118.653 20.4705 117.598 19.7044 117.898 18.7831L119.416 14.1093C119.55 13.6973 119.403 13.246 119.053 12.9913L115.077 10.1028C114.294 9.53337 114.696 8.29375 115.665 8.29375H120.579C121.013 8.29375 121.396 8.01479 121.53 7.60277L123.049 2.929Z" fill="#346ED6"/>
</svg>
