<svg width="54" height="54" viewBox="0 0 54 54" fill="none" xmlns="http://www.w3.org/2000/svg">
<rect width="54" height="54" rx="27" fill="#FFE8D4"/>
<path d="M41.875 30.1875C41.8753 29.2094 41.6055 28.2501 41.0953 27.4155C40.5852 26.581 39.8546 25.9034 38.9839 25.4576C38.1133 25.0117 37.1365 24.8149 36.1611 24.8888C35.1858 24.9627 34.2498 25.3044 33.4563 25.8764C32.6628 26.4483 32.0425 27.2282 31.664 28.1301C31.2854 29.032 31.1632 30.021 31.3109 30.9879C31.4585 31.9548 31.8702 32.8623 32.5006 33.6101C33.1311 34.358 33.9557 34.9173 34.8838 35.2264C34.7036 36.0563 34.2449 36.7994 33.5838 37.3325C32.9227 37.8655 32.0992 38.1562 31.25 38.1562H28.0625C27.0762 38.1562 26.1303 37.7645 25.4329 37.0671C24.7355 36.3697 24.3438 35.4238 24.3438 34.4375V29.5102C28.5579 28.7425 31.7812 24.9826 31.7812 20.5148V15.3125C31.7812 14.9637 31.7125 14.6183 31.5791 14.296C31.4456 13.9737 31.2499 13.6809 31.0033 13.4342C30.7566 13.1876 30.4638 12.9919 30.1415 12.8584C29.8192 12.725 29.4738 12.6562 29.125 12.6562H27C26.5773 12.6562 26.1719 12.8242 25.873 13.123C25.5742 13.4219 25.4062 13.8273 25.4062 14.25C25.4062 14.6727 25.5742 15.0781 25.873 15.377C26.1719 15.6758 26.5773 15.8438 27 15.8438H28.5938V20.5148C28.5938 23.7554 26.0079 26.4276 22.8284 26.4688C22.0544 26.4791 21.286 26.3356 20.568 26.0466C19.8499 25.7576 19.1964 25.3288 18.6455 24.7851C18.0945 24.2414 17.657 23.5937 17.3585 22.8796C17.0599 22.1654 16.9062 21.3991 16.9062 20.625V15.8438H18.5C18.9227 15.8438 19.3281 15.6758 19.627 15.377C19.9258 15.0781 20.0938 14.6727 20.0938 14.25C20.0938 13.8273 19.9258 13.4219 19.627 13.123C19.3281 12.8242 18.9227 12.6562 18.5 12.6562H16.375C15.6705 12.6562 14.9949 12.9361 14.4967 13.4342C13.9986 13.9324 13.7188 14.608 13.7188 15.3125V20.625C13.7188 22.7438 14.4638 24.795 15.8235 26.42C17.1831 28.045 19.0707 29.1402 21.1562 29.5141V34.4375C21.1584 36.2685 21.8867 38.0239 23.1814 39.3186C24.4761 40.6133 26.2315 41.3416 28.0625 41.3438H31.25C32.9365 41.3417 34.5641 40.7234 35.8265 39.605C37.0889 38.4867 37.8991 36.9455 38.1045 35.2716C39.1943 34.9392 40.1488 34.266 40.8275 33.3508C41.5062 32.4357 41.8734 31.3269 41.875 30.1875ZM36.5625 32.3125C36.1422 32.3125 35.7314 32.1879 35.3819 31.9544C35.0325 31.7209 34.7601 31.389 34.5993 31.0007C34.4384 30.6124 34.3963 30.1851 34.4783 29.7729C34.5603 29.3607 34.7627 28.9821 35.0599 28.6849C35.3571 28.3877 35.7357 28.1853 36.1479 28.1033C36.5601 28.0213 36.9874 28.0634 37.3757 28.2243C37.764 28.3851 38.0959 28.6575 38.3294 29.0069C38.5629 29.3564 38.6875 29.7672 38.6875 30.1875C38.6875 30.7511 38.4636 31.2916 38.0651 31.6901C37.6666 32.0886 37.1261 32.3125 36.5625 32.3125Z" fill="#FFA760"/>
</svg>
