<svg width="54" height="54" viewBox="0 0 54 54" fill="none" xmlns="http://www.w3.org/2000/svg">
<rect y="0.00195312" width="54" height="54" rx="27" fill="#E5FBF1"/>
<path d="M27.0002 12.8354C19.1943 12.8354 12.8335 19.1963 12.8335 27.0021C12.8335 34.8079 19.1943 41.1688 27.0002 41.1688C34.806 41.1688 41.1668 34.8079 41.1668 27.0021C41.1668 19.1963 34.806 12.8354 27.0002 12.8354ZM33.7718 23.7438L25.7393 31.7763C25.541 31.9746 25.2718 32.0879 24.9885 32.0879C24.7052 32.0879 24.436 31.9746 24.2377 31.7763L20.2285 27.7671C19.8177 27.3563 19.8177 26.6763 20.2285 26.2654C20.6393 25.8546 21.3193 25.8546 21.7302 26.2654L24.9885 29.5238L32.2702 22.2421C32.681 21.8313 33.361 21.8313 33.7718 22.2421C34.1827 22.6529 34.1827 23.3188 33.7718 23.7438Z" fill="#5EBE85"/>
</svg>
