<svg width="54" height="54" viewBox="0 0 54 54" fill="none" xmlns="http://www.w3.org/2000/svg">
<rect y="0.00219727" width="54" height="54" rx="27" fill="#D7EEF9"/>
<path d="M34.6359 32.2011L28.9126 27.002H25.0734L19.3501 32.2011C17.7492 33.6461 17.2251 35.8703 18.0042 37.882C18.7834 39.8795 20.6817 41.1686 22.8209 41.1686H31.1651C33.3184 41.1686 35.2026 39.8795 35.9817 37.882C36.7609 35.8703 36.2367 33.6461 34.6359 32.2011ZM29.5784 35.7003H24.4217C23.8834 35.7003 23.4584 35.2611 23.4584 34.737C23.4584 34.2128 23.8976 33.7736 24.4217 33.7736H29.5784C30.1167 33.7736 30.5417 34.2128 30.5417 34.737C30.5417 35.2611 30.1026 35.7003 29.5784 35.7003Z" fill="#279ACC"/>
<path d="M35.9959 16.1221C35.2167 14.1246 33.3184 12.8354 31.1792 12.8354H22.8209C20.6817 12.8354 18.7834 14.1246 18.0042 16.1221C17.2392 18.1338 17.7634 20.3579 19.3642 21.8029L25.0875 27.0021H28.9267L34.65 21.8029C36.2367 20.3579 36.7609 18.1338 35.9959 16.1221ZM29.5784 20.2446H24.4217C23.8834 20.2446 23.4584 19.8054 23.4584 19.2813C23.4584 18.7571 23.8975 18.3179 24.4217 18.3179H29.5784C30.1167 18.3179 30.5417 18.7571 30.5417 19.2813C30.5417 19.8054 30.1025 20.2446 29.5784 20.2446Z" fill="#279ACC"/>
</svg>
